<svg xmlns="http://www.w3.org/2000/svg" xmlns:xlink="http://www.w3.org/1999/xlink" xmlns:xodm="http://www.corel.com/coreldraw/odm/2003" xml:space="preserve" width="297mm" height="210mm" style="shape-rendering:geometricPrecision; text-rendering:geometricPrecision; image-rendering:optimizeQuality; fill-rule:evenodd; clip-rule:evenodd" viewBox="0 0 29700 21000">
 <defs>
  <style type="text/css">
   <![CDATA[
    .fil0 {fill:black}
    .fil1 {fill:black;fill-rule:nonzero}
   ]]>
  </style>
 </defs>
 <g id="Camada_x0020_1">
  <metadata id="CorelCorpID_0Corel-Layer"></metadata>
  <g id="_1878755594736">
   <polygon class="fil0" points="2349.16,7486.27 4303.2,7500.04 2751.35,13353.99 4983.35,13368 6562.92,7503.08 8802.92,7499.08 9203.94,5859.85 8609.43,5860.25 8342.8,6917.92 6047.06,6914.68 4471,12783.44 3598.67,12777.56 5149.72,6926.43 3095.38,6913.7 3337.11,5868.76 2741.13,5860.3 "></polygon>
   <path class="fil0" d="M14151.92 10429.66l814.32 -2.51c121.54,-506.85 285.61,-667.69 882.23,-610.17 558.26,53.85 634.06,333.52 657.04,872.52 -569.62,18.26 -1229.96,-50.78 -1746.11,126.68 -1127.27,387.59 -916.89,2002.33 279.13,2085.74 709.68,49.44 918.71,-303.24 1441.4,-433.21l26.87 372.63 838.02 7.85c40.92,-627.11 10.83,-1353.51 10.93,-1993.93 0.09,-674.33 -133.79,-1200.44 -574.11,-1515.42 -630.9,-451.37 -2797.8,-376.41 -2629.72,1089.82zm2337.34 1307.08l8.49 -407.44c-546.49,-22.8 -1813.53,-156.74 -1600.4,603.1 179.85,641.11 1270.61,10.74 1591.91,-195.66z"></path>
   <path class="fil0" d="M23614.87 11657.02l-826.22 2.98c-90.21,216.04 -96.56,371.65 -305.43,477.79 -187.43,95.25 -469.25,94.87 -684.01,55.89 -487.19,-88.36 -613.27,-411.1 -603.82,-928.1l2410.46 3.79c36.38,-891.31 36.85,-1987.64 -1284.88,-2137.71 -1103.66,-125.31 -1923.33,403.53 -1981.95,1433.63 -54.32,954.59 -71.23,1971.33 1106.32,2286.72 704.52,188.74 2146.14,37.73 2169.53,-1194.99zm-2423.42 -960.79l1620.84 -0.56c-21.86,-550.62 -241.4,-870.55 -787.52,-882.07 -610.83,-12.9 -826.34,298.04 -833.32,882.63z"></path>
   <polygon class="fil0" points="10520.9,12837.48 11477.2,12842.88 11483.2,10706.42 13648.73,10706.53 13679.05,9860.92 11496.57,9853.59 11485.62,8458.78 13904.94,8459.54 13893.81,7665.81 10547.58,7661.83 "></polygon>
   <path class="fil0" d="M9192.23 7886.24l-2210.74 21.32c-165.07,95.88 -115.05,81.13 -176.88,304.25l-694.43 2597.37c-247.99,941.85 -493.9,2045 -803.83,2955.95l-1571.89 11.68 -140.74 598.55 2212.52 -0.09 1592.96 -5866.29 2234.16 -4.56 387.05 -1585.9 -578.5 -4.84 -249.68 972.56z"></path>
   <path class="fil0" d="M27349.76 11426.46l-800.21 4.02 -100.39 328.3c-130.37,374.28 -521.66,446.75 -890.6,380.58 -539.01,-96.65 -584.96,-551.73 -586.18,-1107.59 -1.13,-513.62 3.37,-1065.98 530.83,-1155.81 733.23,-124.91 904.73,136.08 1004.63,720.83l823.25 -1.33c44.99,-1081.74 -682.11,-1499.28 -1722.72,-1480.69 -1143.79,20.43 -1492.31,736.56 -1491.84,1858.05 0.49,1119.61 288.04,1831.25 1383.28,1923.4 1178.07,99.12 1766.31,-367.43 1849.95,-1469.76z"></path>
   <path class="fil0" d="M18085.88 9183.46l-542.45 4.64 -23.25 649.68 558.48 34.89c95.13,1472.05 -546.73,3236.5 1869.32,2959.81l4.95 -719.01c-584.95,-41.8 -1000.7,85.99 -1014.11,-607.93 -9.28,-480.92 -27.23,-1177.95 18.21,-1642.75l998.7 0.09 -9.15 -671.31 -1005.65 -8.49 -0.8 -994.15 -834.7 -21.43 -19.55 1015.96z"></path>
   <g>
    <path class="fil1" d="M11157.56 13837.07c0,10.49 -0.57,19.57 -1.7,27.24 -1.12,7.64 -3.13,13.9 -5.66,18.72 -2.85,4.54 -5.95,8.2 -9.65,10.21 -3.69,2.25 -7.39,3.41 -11.36,3.41l-393.73 0 0 365.92 372.19 0c3.97,0 7.64,0.85 11.33,2.82 3.7,2.01 6.83,5.1 9.64,9.64 2.57,4.54 4.54,10.53 5.67,17.88 1.16,7.67 1.72,17.04 1.72,28.65 0,10.8 -0.56,19.85 -1.72,27.24 -1.13,7.39 -3.1,13.62 -5.67,18.44 -2.81,4.54 -5.94,8.24 -9.64,10.77 -3.69,2.57 -7.36,3.7 -11.33,3.7l-372.19 0 0 448.18c0,3.97 -1.13,7.67 -3.38,11.36 -2.29,3.41 -5.98,6.23 -11.65,8.24 -5.38,1.97 -12.77,3.66 -21.54,5.1 -8.8,1.41 -20.45,1.97 -34.91,1.97 -13.34,0 -24.67,-0.56 -34.03,-1.97 -9.37,-1.44 -17.04,-3.13 -22.42,-5.1 -5.67,-2.01 -9.36,-4.83 -11.62,-8.24 -2.28,-3.69 -3.41,-7.39 -3.41,-11.36l0 -995.95c0,-21.55 5.67,-36.58 17.03,-45.37 11.34,-8.52 23.55,-12.78 36.29,-12.78l483.37 0c3.97,0 7.67,1.13 11.36,3.41 3.7,1.98 6.8,5.67 9.65,10.78 2.53,4.82 4.54,11.33 5.66,19.28 1.13,7.96 1.7,17.32 1.7,27.81zm719.38 994.54c0,6.51 -2.28,11.61 -6.54,15.03 -4.54,3.41 -10.49,5.66 -18.44,7.39 -7.64,1.69 -19.01,2.53 -34.04,2.53 -14.18,0 -25.8,-0.84 -34.31,-2.53 -8.52,-1.73 -14.75,-3.98 -18.73,-7.39 -3.97,-3.42 -5.95,-8.24 -5.95,-15.03l0 -74.9c-32.62,34.88 -68.94,62.12 -109.21,81.41 -40.29,19.01 -82.84,28.65 -127.65,28.65 -39.42,0 -75.18,-5.1 -106.96,-15.31 -31.74,-10.21 -58.98,-25.24 -81.4,-44.53 -22.42,-19.28 -39.99,-43.42 -52.48,-71.48 -12.49,-28.36 -18.72,-60.43 -18.72,-96.46 0,-42.27 8.51,-78.84 25.83,-109.78 17,-31.21 41.67,-57.01 74.02,-77.43 32.06,-20.44 71.48,-36.04 118,-46.24 46.53,-10.21 99.01,-15.31 157.15,-15.31l103.26 0 0 -58.46c0,-28.65 -3.13,-54.17 -9.08,-76.59 -6.23,-22.1 -15.87,-40.54 -29.49,-55.29 -13.62,-14.78 -31.22,-25.83 -52.76,-33.19 -21.57,-7.67 -48.22,-11.36 -79.72,-11.36 -33.75,0 -64.12,3.97 -90.76,12.21 -26.96,8.2 -50.51,17 -70.64,26.92 -20.13,9.96 -37.17,18.73 -50.79,26.96 -13.33,8.24 -23.54,12.21 -30.05,12.21 -4.54,0 -8.52,-1.16 -11.65,-3.41 -3.38,-1.97 -6.23,-5.39 -8.77,-9.93 -2.57,-4.25 -4.26,-9.92 -5.41,-16.75 -1.13,-7.07 -1.7,-14.46 -1.7,-22.98 0,-13.59 0.85,-24.67 2.85,-32.59 1.98,-7.96 6.8,-15.63 14.19,-22.7 7.36,-7.11 20.41,-15.59 38.57,-25.55 18.16,-9.65 39.42,-18.73 63.25,-26.93 23.54,-7.95 49.66,-14.75 78.02,-20.13 28.09,-5.42 56.74,-7.95 85.39,-7.95 53.6,0 99.28,5.95 136.98,18.16 37.73,12.18 68.1,30.34 91.36,53.88 23.27,23.55 39.99,52.76 50.48,87.67 10.52,34.88 15.9,75.71 15.9,122.24l0 504.94zm-136.17 -342.66l-117.16 0c-37.45,0 -70.04,3.1 -97.85,9.64 -27.52,6.23 -50.5,15.87 -68.94,28.37 -18.16,12.46 -31.5,27.21 -40.27,44.8 -8.51,17.6 -12.77,37.73 -12.77,60.43 0,38.86 12.21,69.76 36.88,92.74 24.68,22.98 58.99,34.63 103.55,34.63 35.72,0 69.19,-9.08 99.84,-27.52 30.63,-18.16 62.97,-46.25 96.72,-83.97l0 -159.12zm925.88 226.62c0,9.36 -0.28,17.6 -0.85,24.39 -0.56,7.11 -1.4,12.78 -2.81,17.6 -1.44,4.82 -3.13,8.8 -5.11,12.49 -2,3.7 -6.26,9.08 -13.34,15.88 -6.82,7.1 -18.72,15.59 -35.19,26.11 -16.72,10.21 -35.44,19.57 -56.17,27.49 -20.98,8.23 -43.39,14.78 -67.79,19.6 -24.39,5.1 -49.62,7.64 -75.74,7.64 -53.88,0 -101.53,-8.8 -142.96,-26.65 -41.7,-17.59 -76.58,-43.42 -104.39,-77.46 -28.08,-34.03 -49.34,-76.02 -64.12,-125.36 -14.75,-49.66 -22.11,-106.68 -22.11,-171.62 0,-73.48 9.08,-136.73 26.93,-189.77 18.16,-52.79 42.87,-96.18 74.05,-129.94 31.5,-33.75 68.38,-58.7 110.62,-75.17 42.55,-16.16 88.51,-24.39 137.89,-24.39 23.83,0 46.78,2.28 69.2,6.82 22.7,4.26 43.11,10.21 62.12,17.29 18.72,7.39 35.75,15.62 50.22,25.26 14.74,9.37 25.52,17.57 32.06,24.11 6.79,6.8 11.33,12.18 13.87,15.88 2.29,3.97 4.54,8.51 6.26,13.9 1.41,5.1 2.54,11.05 3.1,17.88 0.6,6.51 0.88,15.03 0.88,24.95 0,21.57 -2.57,36.6 -7.39,45.4 -5.1,8.49 -11.05,12.74 -18.44,12.74 -8.24,0 -17.88,-4.54 -28.65,-13.9 -10.77,-9.08 -24.39,-19.28 -41.14,-30.34 -16.72,-11.05 -36.86,-21.29 -60.4,-30.34 -23.55,-9.36 -51.35,-13.9 -83.41,-13.9 -66.1,0 -116.85,25.24 -152.04,76.02 -35.17,50.47 -52.76,123.96 -52.76,220.11 0,47.94 4.54,90.21 13.62,126.53 9.36,36.01 22.7,66.38 40.54,90.77 17.6,24.11 39.46,42.27 65.26,54.16 25.83,11.93 55.32,17.88 88.51,17.88 31.78,0 59.55,-5.1 83.38,-15.03 23.83,-9.92 44.27,-20.97 61.84,-33.19 17.59,-11.92 32.34,-22.7 44.27,-32.34 11.9,-9.92 20.98,-14.75 27.8,-14.75 3.67,0 7.08,1.13 9.93,3.42 2.82,2.25 5.1,5.95 7.07,11.05 2.01,5.38 3.42,11.93 4.26,20.13 0.85,7.95 1.13,17.6 1.13,28.65zm821.8 115.19c0,4.54 -0.84,8.21 -2.85,11.34 -1.97,2.85 -5.38,5.66 -10.49,7.95 -4.82,1.97 -11.33,3.66 -19.57,4.82 -7.95,1.13 -17.87,1.69 -29.49,1.69 -12.49,0 -22.98,-0.56 -30.93,-1.69 -8.24,-1.16 -14.47,-2.85 -19.29,-4.82 -4.54,-2.29 -7.95,-5.1 -9.36,-7.95 -1.69,-3.13 -2.54,-6.8 -2.54,-11.34l0 -99c-42.83,47.09 -84.82,81.12 -126.52,102.67 -41.43,21.57 -83.7,32.34 -126.25,32.34 -49.91,0 -91.89,-8.24 -125.93,-24.96 -34.03,-16.46 -61.84,-39.13 -82.84,-67.78 -20.98,-28.37 -36.01,-61.56 -45.37,-99.57 -9.08,-38.01 -13.62,-84.26 -13.62,-138.45l0 -453.56c0,-4.54 0.84,-8.24 2.81,-11.37 2.01,-2.82 5.7,-5.67 11.37,-8.2 5.39,-2.57 12.77,-4.26 21.54,-5.11 8.8,-0.87 19.88,-1.16 33.19,-1.16 13.34,0 24.42,0.29 33.19,1.16 8.8,0.85 15.91,2.54 21.29,5.11 5.1,2.53 8.8,5.38 11.05,8.2 2.29,3.13 3.42,6.83 3.42,11.37l0 435.71c0,43.68 3.13,78.84 9.64,105.23 6.23,26.37 15.87,48.78 28.93,67.23 13.06,18.72 29.78,33.19 49.66,43.39 19.85,10.21 43.11,15.31 69.76,15.31 34.31,0 68.66,-12.18 102.7,-36.57 34.31,-24.39 70.35,-60.14 108.64,-107.23l0 -523.07c0,-4.54 0.85,-8.24 2.82,-11.37 2,-2.82 5.7,-5.67 11.37,-8.2 5.38,-2.57 12.46,-4.26 20.97,-5.11 8.8,-0.87 19.85,-1.16 33.76,-1.16 13.33,0 24.42,0.29 33.19,1.16 8.79,0.85 15.9,2.54 20.72,5.11 5.11,2.53 8.8,5.38 11.34,8.2 2.56,3.13 3.69,6.83 3.69,11.37l0 748.31zm392.04 0c0,4.54 -1.13,8.21 -3.41,11.34 -2.26,2.85 -5.67,5.66 -10.78,7.95 -5.1,1.97 -11.92,3.66 -20.97,4.82 -8.8,1.13 -20.17,1.69 -34.07,1.69 -13.59,0 -24.67,-0.56 -33.47,-1.69 -9.08,-1.16 -16.16,-2.85 -21.26,-4.82 -5.38,-2.29 -9.08,-5.1 -11.05,-7.95 -2.01,-3.13 -2.85,-6.8 -2.85,-11.34l0 -1109.98c0,-4.54 0.84,-8.52 2.85,-11.65 1.97,-3.41 5.67,-6.23 11.05,-8.51 5.1,-1.98 12.18,-3.7 21.26,-4.83 8.8,-1.12 19.88,-1.69 33.47,-1.69 13.9,0 25.27,0.57 34.07,1.69 9.05,1.13 15.87,2.85 20.97,4.83 5.11,2.28 8.52,5.1 10.78,8.51 2.28,3.13 3.41,7.11 3.41,11.65l0 1109.98zm892.69 0c0,4.54 -0.85,8.21 -2.85,11.62 -1.98,3.41 -5.39,5.95 -9.93,7.95 -4.82,1.97 -11.05,3.38 -18.72,4.54 -7.92,1.13 -17.28,1.69 -28.37,1.69 -11.61,0 -21.26,-0.56 -28.93,-1.69 -7.92,-1.16 -14.18,-2.57 -19.29,-4.54 -4.82,-2 -8.51,-4.54 -10.77,-7.95 -2,-3.41 -3.13,-7.36 -3.13,-11.62l0 -99.57c-39.42,42.84 -80.28,76.03 -122.55,99.85 -42.55,23.83 -88.76,35.73 -139.27,35.73 -54.76,0 -101.53,-10.77 -140.14,-32.06 -38.86,-21.26 -70.32,-50.19 -94.46,-86.51 -23.83,-36.29 -41.4,-78.84 -52.48,-127.94 -11.05,-49.06 -16.72,-100.69 -16.72,-154.86 0,-64.4 6.8,-122.55 20.7,-174.18 13.9,-51.91 34.31,-96.15 61.55,-132.75 26.96,-36.61 60.71,-64.69 101.01,-84.26 39.98,-19.57 86.23,-29.49 138.99,-29.49 43.67,0 83.66,9.64 119.98,28.65 36.32,19.28 72.04,47.37 107.52,84.53l0 -433.74c0,-3.98 0.84,-7.64 2.82,-11.33 2,-3.7 5.69,-6.23 11.36,-8.24 5.39,-1.97 12.46,-3.69 20.98,-5.1 8.8,-1.41 19.57,-1.97 32.91,-1.97 13.9,0 25.26,0.56 34.03,1.97 8.8,1.41 15.91,3.13 20.73,5.1 5.1,2.01 8.8,4.54 11.33,8.24 2.57,3.69 3.7,7.35 3.7,11.33l0 1106.6zm-137.86 -526.76c-36.89,-46.25 -72.61,-81.44 -107.24,-105.55 -34.6,-24.11 -70.64,-36.29 -108.08,-36.29 -34.88,0 -64.38,8.2 -88.77,24.96 -24.39,16.72 -43.99,38.57 -59.3,65.81 -15.03,26.93 -26.08,57.86 -32.91,92.18 -7.07,34.31 -10.49,69.22 -10.49,104.67 0,37.73 2.85,74.61 8.8,110.65 5.67,36.01 15.88,68.07 30.06,96.15 14.47,28.09 33.47,50.51 57.3,67.51 23.54,16.75 53.63,25.23 89.36,25.23 18.16,0 35.75,-2.53 52.76,-7.35 16.75,-5.11 34.03,-13.34 51.63,-24.96 17.59,-11.65 36.32,-26.68 55.6,-45.4 19.29,-18.44 39.7,-41.14 61.28,-68.35l0 -299.26zm955.4 527.61c0,6.51 -2.29,11.61 -6.54,15.03 -4.54,3.41 -10.49,5.66 -18.45,7.39 -7.63,1.69 -19,2.53 -34.03,2.53 -14.18,0 -25.8,-0.84 -34.32,-2.53 -8.51,-1.73 -14.74,-3.98 -18.72,-7.39 -3.98,-3.42 -5.95,-8.24 -5.95,-15.03l0 -74.9c-32.62,34.88 -68.94,62.12 -109.21,81.41 -40.29,19.01 -82.85,28.65 -127.65,28.65 -39.42,0 -75.18,-5.1 -106.96,-15.31 -31.75,-10.21 -58.99,-25.24 -81.4,-44.53 -22.42,-19.28 -39.99,-43.42 -52.48,-71.48 -12.49,-28.36 -18.72,-60.43 -18.72,-96.46 0,-42.27 8.51,-78.84 25.83,-109.78 17,-31.21 41.67,-57.01 74.02,-77.43 32.06,-20.44 71.48,-36.04 118,-46.24 46.53,-10.21 99.01,-15.31 157.15,-15.31l103.26 0 0 -58.46c0,-28.65 -3.13,-54.17 -9.08,-76.59 -6.23,-22.1 -15.87,-40.54 -29.49,-55.29 -13.62,-14.78 -31.22,-25.83 -52.76,-33.19 -21.57,-7.67 -48.22,-11.36 -79.72,-11.36 -33.75,0 -64.12,3.97 -90.76,12.21 -26.96,8.2 -50.51,17 -70.64,26.92 -20.13,9.96 -37.17,18.73 -50.79,26.96 -13.33,8.24 -23.54,12.21 -30.05,12.21 -4.54,0 -8.52,-1.16 -11.65,-3.41 -3.38,-1.97 -6.23,-5.39 -8.77,-9.93 -2.57,-4.25 -4.26,-9.92 -5.42,-16.75 -1.12,-7.07 -1.69,-14.46 -1.69,-22.98 0,-13.59 0.85,-24.67 2.85,-32.59 1.98,-7.96 6.8,-15.63 14.19,-22.7 7.35,-7.11 20.41,-15.59 38.57,-25.55 18.16,-9.65 39.42,-18.73 63.25,-26.93 23.54,-7.95 49.66,-14.75 78.02,-20.13 28.09,-5.42 56.74,-7.95 85.39,-7.95 53.6,0 99.28,5.95 136.98,18.16 37.73,12.18 68.1,30.34 91.36,53.88 23.27,23.55 39.99,52.76 50.47,87.67 10.53,34.88 15.91,75.71 15.91,122.24l0 504.94zm-136.17 -342.66l-117.16 0c-37.45,0 -70.04,3.1 -97.85,9.64 -27.52,6.23 -50.5,15.87 -68.94,28.37 -18.16,12.46 -31.5,27.21 -40.27,44.8 -8.51,17.6 -12.77,37.73 -12.77,60.43 0,38.86 12.21,69.76 36.88,92.74 24.68,22.98 58.99,34.63 103.55,34.63 35.72,0 69.19,-9.08 99.84,-27.52 30.63,-18.16 62.97,-46.25 96.72,-83.97l0 -159.12zm1028.01 341.81c0,4.54 -0.84,8.21 -2.85,11.62 -1.97,3.41 -5.38,5.95 -9.92,7.95 -4.82,1.97 -11.05,3.38 -18.72,4.54 -7.93,1.13 -17.29,1.69 -28.37,1.69 -11.62,0 -21.26,-0.56 -28.93,-1.69 -7.92,-1.16 -14.19,-2.57 -19.29,-4.54 -4.82,-2 -8.52,-4.54 -10.77,-7.95 -2,-3.41 -3.13,-7.36 -3.13,-11.62l0 -99.57c-39.42,42.84 -80.28,76.03 -122.55,99.85 -42.55,23.83 -88.76,35.73 -139.27,35.73 -54.76,0 -101.54,-10.77 -140.14,-32.06 -38.86,-21.26 -70.33,-50.19 -94.47,-86.51 -23.82,-36.29 -41.39,-78.84 -52.47,-127.94 -11.06,-49.06 -16.72,-100.69 -16.72,-154.86 0,-64.4 6.79,-122.55 20.69,-174.18 13.91,-51.91 34.32,-96.15 61.56,-132.75 26.96,-36.61 60.71,-64.69 101.01,-84.26 39.98,-19.57 86.23,-29.49 138.98,-29.49 43.68,0 83.66,9.64 119.98,28.65 36.32,19.28 72.05,47.37 107.52,84.53l0 -433.74c0,-3.98 0.85,-7.64 2.82,-11.33 2.01,-3.7 5.7,-6.23 11.37,-8.24 5.38,-1.97 12.46,-3.69 20.98,-5.1 8.79,-1.41 19.56,-1.97 32.9,-1.97 13.9,0 25.27,0.56 34.04,1.97 8.8,1.41 15.9,3.13 20.72,5.1 5.11,2.01 8.8,4.54 11.34,8.24 2.57,3.69 3.69,7.35 3.69,11.33l0 1106.6zm-137.86 -526.76c-36.88,-46.25 -72.6,-81.44 -107.23,-105.55 -34.6,-24.11 -70.64,-36.29 -108.09,-36.29 -34.88,0 -64.37,8.2 -88.76,24.96 -24.39,16.72 -43.99,38.57 -59.3,65.81 -15.03,26.93 -26.08,57.86 -32.91,92.18 -7.08,34.31 -10.49,69.22 -10.49,104.67 0,37.73 2.85,74.61 8.8,110.65 5.67,36.01 15.87,68.07 30.06,96.15 14.46,28.09 33.47,50.51 57.29,67.51 23.55,16.75 53.64,25.23 89.36,25.23 18.16,0 35.76,-2.53 52.76,-7.35 16.75,-5.11 34.04,-13.34 51.63,-24.96 17.6,-11.65 36.32,-26.68 55.61,-45.4 19.29,-18.44 39.7,-41.14 61.27,-68.35l0 -299.26zm1028.58 119.98c0,21.54 -5.39,36.88 -16.16,46.24 -10.77,9.05 -23.26,13.59 -37.16,13.59l-491.32 0c0,41.71 4.25,79.15 12.49,112.34 8.23,33.47 22.14,62.12 41.7,85.95 19.29,23.83 44.53,41.99 75.46,54.76 31.19,12.78 69.2,19.29 114.03,19.29 35.45,0 67.23,-2.85 94.75,-8.8 27.8,-5.67 51.91,-12.21 72.04,-19.29 20.14,-7.1 36.89,-13.62 49.91,-19.28 13.06,-5.95 22.7,-8.8 29.53,-8.8 3.94,0 7.36,0.84 10.49,2.85 2.82,1.97 5.38,4.82 6.79,8.8 1.72,3.66 3.13,9.04 3.98,15.87 0.84,7.08 1.13,15.31 1.13,25.24 0,7.1 -0.29,13.33 -0.85,18.72 -0.56,5.1 -1.13,9.93 -1.97,13.9 -0.85,4.26 -2.29,7.95 -4.26,11.34 -2,3.13 -4.26,6.26 -7.39,9.36 -3.1,3.13 -12.18,7.95 -26.93,14.78 -15.06,7.07 -34.34,13.59 -58.17,20.41 -23.83,6.51 -51.32,12.46 -82.53,17.6 -31.22,5.38 -64.41,7.92 -99.85,7.92 -61.56,0 -115.16,-8.52 -161.41,-25.8 -46.24,-17.03 -85.1,-42.55 -116.6,-76.3 -31.46,-34.04 -55.29,-76.31 -71.2,-127.37 -16.15,-50.79 -24.11,-110.06 -24.11,-177.88 0,-64.09 8.24,-121.95 24.96,-173.3 16.47,-51.07 40.58,-94.75 71.79,-130.5 31.19,-35.73 69.2,-62.97 113.44,-82.25 44.27,-19.01 93.9,-28.65 148.66,-28.65 58.71,0 108.65,9.36 149.76,28.36 41.42,18.73 75.17,44.24 101.85,76.02 26.36,31.78 45.96,69.2 58.43,112.35 12.49,42.83 18.72,88.76 18.72,137.57l0 24.96zm-137.86 -40.58c1.69,-72.05 -14.18,-128.78 -47.94,-169.92 -33.75,-41.11 -83.41,-61.56 -149.5,-61.56 -34.04,0 -63.81,6.26 -89.33,19.01 -25.55,12.77 -46.81,29.81 -64.12,51.07 -17.32,21 -30.63,45.68 -39.99,73.48 -9.36,28.09 -14.75,57.3 -15.9,87.92l406.78 0zm1372.68 447.36c0,4.54 -0.85,8.21 -2.85,11.62 -1.98,3.41 -5.39,5.95 -9.93,7.95 -4.82,1.97 -11.05,3.38 -18.72,4.54 -7.92,1.13 -17.29,1.69 -28.37,1.69 -11.62,0 -21.26,-0.56 -28.93,-1.69 -7.92,-1.16 -14.18,-2.57 -19.29,-4.54 -4.82,-2 -8.51,-4.54 -10.77,-7.95 -2,-3.41 -3.13,-7.36 -3.13,-11.62l0 -99.57c-39.42,42.84 -80.28,76.03 -122.55,99.85 -42.55,23.83 -88.76,35.73 -139.27,35.73 -54.76,0 -101.54,-10.77 -140.14,-32.06 -38.86,-21.26 -70.32,-50.19 -94.46,-86.51 -23.83,-36.29 -41.4,-78.84 -52.48,-127.94 -11.05,-49.06 -16.72,-100.69 -16.72,-154.86 0,-64.4 6.79,-122.55 20.7,-174.18 13.9,-51.91 34.31,-96.15 61.55,-132.75 26.96,-36.61 60.71,-64.69 101.01,-84.26 39.98,-19.57 86.23,-29.49 138.99,-29.49 43.67,0 83.66,9.64 119.98,28.65 36.32,19.28 72.04,47.37 107.52,84.53l0 -433.74c0,-3.98 0.84,-7.64 2.81,-11.33 2.01,-3.7 5.7,-6.23 11.37,-8.24 5.39,-1.97 12.46,-3.69 20.98,-5.1 8.8,-1.41 19.57,-1.97 32.91,-1.97 13.9,0 25.26,0.56 34.03,1.97 8.8,1.41 15.91,3.13 20.73,5.1 5.1,2.01 8.8,4.54 11.33,8.24 2.57,3.69 3.7,7.35 3.7,11.33l0 1106.6zm-137.86 -526.76c-36.89,-46.25 -72.61,-81.44 -107.24,-105.55 -34.6,-24.11 -70.64,-36.29 -108.08,-36.29 -34.88,0 -64.38,8.2 -88.77,24.96 -24.39,16.72 -43.99,38.57 -59.3,65.81 -15.03,26.93 -26.08,57.86 -32.91,92.18 -7.07,34.31 -10.49,69.22 -10.49,104.67 0,37.73 2.85,74.61 8.8,110.65 5.67,36.01 15.88,68.07 30.06,96.15 14.46,28.09 33.47,50.51 57.3,67.51 23.54,16.75 53.63,25.23 89.36,25.23 18.16,0 35.75,-2.53 52.75,-7.35 16.76,-5.11 34.04,-13.34 51.64,-24.96 17.59,-11.65 36.31,-26.68 55.6,-45.4 19.29,-18.44 39.7,-41.14 61.28,-68.35l0 -299.26zm1028.57 119.98c0,21.54 -5.38,36.88 -16.15,46.24 -10.78,9.05 -23.27,13.59 -37.17,13.59l-491.32 0c0,41.71 4.26,79.15 12.49,112.34 8.24,33.47 22.14,62.12 41.71,85.95 19.28,23.83 44.52,41.99 75.45,54.76 31.19,12.78 69.2,19.29 114.04,19.29 35.44,0 67.22,-2.85 94.74,-8.8 27.81,-5.67 51.91,-12.21 72.05,-19.29 20.13,-7.1 36.88,-13.62 49.91,-19.28 13.05,-5.95 22.7,-8.8 29.52,-8.8 3.95,0 7.36,0.84 10.49,2.85 2.82,1.97 5.39,4.82 6.79,8.8 1.73,3.66 3.14,9.04 3.98,15.87 0.85,7.08 1.13,15.31 1.13,25.24 0,7.1 -0.28,13.33 -0.85,18.72 -0.56,5.1 -1.12,9.93 -1.97,13.9 -0.85,4.26 -2.29,7.95 -4.26,11.34 -2,3.13 -4.26,6.26 -7.39,9.36 -3.1,3.13 -12.18,7.95 -26.92,14.78 -15.06,7.07 -34.35,13.59 -58.18,20.41 -23.83,6.51 -51.32,12.46 -82.53,17.6 -31.22,5.38 -64.41,7.92 -99.85,7.92 -61.56,0 -115.16,-8.52 -161.41,-25.8 -46.24,-17.03 -85.1,-42.55 -116.6,-76.3 -31.46,-34.04 -55.29,-76.31 -71.2,-127.37 -16.15,-50.79 -24.1,-110.06 -24.1,-177.88 0,-64.09 8.23,-121.95 24.95,-173.3 16.47,-51.07 40.58,-94.75 71.79,-130.5 31.19,-35.73 69.2,-62.97 113.44,-82.25 44.27,-19.01 93.9,-28.65 148.66,-28.65 58.71,0 108.65,9.36 149.76,28.36 41.42,18.73 75.18,44.24 101.85,76.02 26.37,31.78 45.97,69.2 58.43,112.35 12.49,42.83 18.72,88.76 18.72,137.57l0 24.96zm-137.86 -40.58c1.69,-72.05 -14.18,-128.78 -47.93,-169.92 -33.76,-41.11 -83.41,-61.56 -149.51,-61.56 -34.03,0 -63.81,6.26 -89.33,19.01 -25.55,12.77 -46.81,29.81 -64.12,51.07 -17.32,21 -30.62,45.68 -39.99,73.48 -9.36,28.09 -14.74,57.3 -15.9,87.92l406.78 0zm1422.02 -546.33c0,10.49 -0.56,19.57 -1.69,27.24 -1.12,7.64 -2.85,13.9 -5.38,18.72 -2.57,4.54 -5.39,8.2 -9.08,10.21 -3.7,2.25 -7.67,3.41 -11.93,3.41l-302.08 0 0 933.24c0,4.54 -1.16,8.23 -3.42,11.64 -2.28,3.42 -5.95,5.95 -11.61,7.96 -5.42,1.97 -12.78,3.66 -21.86,5.1 -9.36,1.41 -20.69,1.97 -34.6,1.97 -13.33,0 -24.7,-0.56 -34.06,-1.97 -9.36,-1.44 -17,-3.13 -22.39,-5.1 -5.7,-2.01 -9.36,-4.54 -11.65,-7.96 -2.25,-3.41 -3.38,-7.1 -3.38,-11.64l0 -933.24 -302.11 0c-4.26,0 -8.24,-1.16 -11.93,-3.41 -3.66,-2.01 -6.51,-5.67 -8.8,-10.21 -1.97,-4.82 -3.94,-11.08 -5.38,-18.72 -1.41,-7.67 -1.98,-16.75 -1.98,-27.24 0,-10.49 0.57,-19.85 1.98,-27.81 1.44,-7.95 3.41,-14.46 5.38,-19.28 2.29,-5.11 5.14,-8.8 8.8,-10.78 3.69,-2.28 7.67,-3.41 11.93,-3.41l747.16 0c4.26,0 8.23,1.13 11.93,3.41 3.69,1.98 6.51,5.67 9.08,10.78 2.53,4.82 4.26,11.33 5.38,19.28 1.13,7.96 1.69,17.32 1.69,27.81zm625.49 586.91c0,21.54 -5.39,36.88 -16.16,46.24 -10.77,9.05 -23.26,13.59 -37.16,13.59l-491.32 0c0,41.71 4.25,79.15 12.49,112.34 8.23,33.47 22.14,62.12 41.7,85.95 19.29,23.83 44.53,41.99 75.46,54.76 31.19,12.78 69.2,19.29 114.03,19.29 35.45,0 67.23,-2.85 94.75,-8.8 27.8,-5.67 51.91,-12.21 72.04,-19.29 20.14,-7.1 36.89,-13.62 49.91,-19.28 13.06,-5.95 22.7,-8.8 29.53,-8.8 3.94,0 7.36,0.84 10.49,2.85 2.82,1.97 5.38,4.82 6.79,8.8 1.72,3.66 3.13,9.04 3.98,15.87 0.84,7.08 1.13,15.31 1.13,25.24 0,7.1 -0.29,13.33 -0.85,18.72 -0.56,5.1 -1.13,9.93 -1.97,13.9 -0.85,4.26 -2.29,7.95 -4.26,11.34 -2,3.13 -4.26,6.26 -7.39,9.36 -3.1,3.13 -12.18,7.95 -26.93,14.78 -15.06,7.07 -34.34,13.59 -58.17,20.41 -23.83,6.51 -51.32,12.46 -82.54,17.6 -31.21,5.38 -64.4,7.92 -99.84,7.92 -61.56,0 -115.16,-8.52 -161.41,-25.8 -46.24,-17.03 -85.1,-42.55 -116.6,-76.3 -31.46,-34.04 -55.29,-76.31 -71.2,-127.37 -16.15,-50.79 -24.11,-110.06 -24.11,-177.88 0,-64.09 8.24,-121.95 24.96,-173.3 16.47,-51.07 40.58,-94.75 71.79,-130.5 31.19,-35.73 69.2,-62.97 113.44,-82.25 44.27,-19.01 93.9,-28.65 148.66,-28.65 58.71,0 108.65,9.36 149.76,28.36 41.42,18.73 75.17,44.24 101.85,76.02 26.36,31.78 45.96,69.2 58.43,112.35 12.49,42.83 18.72,88.76 18.72,137.57l0 24.96zm-137.86 -40.58c1.69,-72.05 -14.18,-128.78 -47.94,-169.92 -33.75,-41.11 -83.41,-61.56 -149.5,-61.56 -34.04,0 -63.81,6.26 -89.33,19.01 -25.55,12.77 -46.81,29.81 -64.12,51.07 -17.32,21 -30.63,45.68 -39.99,73.48 -9.36,28.09 -14.75,57.3 -15.9,87.92l406.78 0z"></path>
    <path class="fil1" d="M22156.49 14715.57c0,9.36 -0.28,17.6 -0.84,24.39 -0.56,7.11 -1.41,12.78 -2.82,17.6 -1.44,4.82 -3.13,8.8 -5.1,12.49 -2.01,3.7 -6.26,9.08 -13.34,15.88 -6.83,7.1 -18.72,15.59 -35.19,26.11 -16.72,10.21 -35.45,19.57 -56.17,27.49 -20.98,8.23 -43.4,14.78 -67.79,19.6 -24.39,5.1 -49.63,7.64 -75.74,7.64 -53.89,0 -101.54,-8.8 -142.96,-26.65 -41.71,-17.59 -76.59,-43.42 -104.39,-77.46 -28.09,-34.03 -49.35,-76.02 -64.13,-125.36 -14.74,-49.66 -22.1,-106.68 -22.1,-171.62 0,-73.48 9.08,-136.73 26.93,-189.77 18.16,-52.79 42.86,-96.18 74.04,-129.94 31.5,-33.75 68.39,-58.7 110.62,-75.17 42.55,-16.16 88.52,-24.39 137.89,-24.39 23.83,0 46.78,2.28 69.2,6.82 22.7,4.26 43.11,10.21 62.12,17.29 18.72,7.39 35.76,15.62 50.22,25.26 14.75,9.37 25.52,17.57 32.06,24.11 6.8,6.8 11.34,12.18 13.87,15.88 2.29,3.97 4.54,8.51 6.27,13.9 1.41,5.1 2.53,11.05 3.1,17.88 0.59,6.51 0.87,15.03 0.87,24.95 0,21.57 -2.56,36.6 -7.39,45.4 -5.1,8.49 -11.05,12.74 -18.44,12.74 -8.23,0 -17.88,-4.54 -28.65,-13.9 -10.77,-9.08 -24.39,-19.28 -41.14,-30.34 -16.72,-11.05 -36.85,-21.29 -60.4,-30.34 -23.54,-9.36 -51.35,-13.9 -83.41,-13.9 -66.09,0 -116.85,25.24 -152.04,76.02 -35.16,50.47 -52.76,123.96 -52.76,220.11 0,47.94 4.54,90.21 13.62,126.53 9.36,36.01 22.7,66.38 40.55,90.77 17.59,24.11 39.45,42.27 65.25,54.16 25.83,11.93 55.32,17.88 88.51,17.88 31.78,0 59.56,-5.1 83.38,-15.03 23.83,-9.92 44.28,-20.97 61.84,-33.19 17.6,-11.92 32.34,-22.7 44.27,-32.34 11.9,-9.92 20.98,-14.75 27.81,-14.75 3.66,0 7.07,1.13 9.92,3.42 2.82,2.25 5.11,5.95 7.08,11.05 2,5.38 3.41,11.93 4.26,20.13 0.84,7.95 1.12,17.6 1.12,28.65zm825.22 115.19c0,4.54 -1.16,8.21 -3.41,11.34 -2.29,2.85 -5.67,5.66 -10.77,7.95 -5.11,1.97 -11.93,3.66 -21.01,4.82 -8.8,1.13 -19.85,1.69 -33.19,1.69 -14.19,0 -25.52,-0.56 -34.32,-1.69 -9.08,-1.16 -15.87,-2.85 -20.98,-4.82 -5.13,-2.29 -8.51,-5.1 -10.8,-7.95 -2.25,-3.13 -3.38,-6.8 -3.38,-11.34l0 -438.28c0,-42.55 -3.41,-77.15 -9.96,-102.98 -6.51,-26.08 -16.15,-48.5 -28.93,-67.5 -12.74,-18.73 -28.93,-33.19 -49.06,-43.12 -20.13,-9.92 -43.4,-15.03 -69.79,-15.03 -34.32,0 -68.35,12.21 -102.39,36.6 -34.34,24.39 -70.07,60.12 -107.52,107.21l0 523.1c0,4.54 -1.12,8.21 -3.41,11.34 -2.25,2.85 -5.67,5.66 -10.77,7.95 -5.1,1.97 -11.93,3.66 -20.98,4.82 -8.8,1.13 -20.16,1.69 -34.06,1.69 -13.59,0 -24.68,-0.56 -33.47,-1.69 -9.08,-1.16 -16.16,-2.85 -21.26,-4.82 -5.39,-2.29 -9.08,-5.1 -11.06,-7.95 -2,-3.13 -2.85,-6.8 -2.85,-11.34l0 -748.31c0,-4.54 0.85,-8.24 2.54,-11.37 1.72,-2.82 4.82,-5.67 9.96,-8.2 5.1,-2.57 11.33,-4.26 19.28,-5.11 7.64,-0.87 18.13,-1.16 30.91,-1.16 12.21,0 22.42,0.29 30.37,1.16 8.2,0.85 14.46,2.54 19,5.11 4.23,2.53 7.64,5.38 9.65,8.2 1.69,3.13 2.82,6.83 2.82,11.37l0 99c41.98,-47.37 83.69,-82 125.68,-103.83 41.67,-21.85 83.66,-32.9 126.21,-32.9 49.66,0 91.64,8.51 125.68,25.23 34.03,17.04 61.55,39.74 82.53,67.79 21.01,28.37 36.04,61.56 45.12,99.57 9.08,38.01 13.62,83.69 13.62,136.73l0 456.72zm945.16 -382.95c0,60.99 -7.92,117.16 -24.11,168.48 -15.87,51.06 -39.98,95.34 -71.76,132.47 -31.78,37.17 -71.76,66.1 -119.42,86.82 -47.93,20.7 -103.54,31.19 -166.5,31.19 -61.56,0 -115.16,-9.08 -160.85,-27.52 -45.68,-18.13 -83.69,-44.81 -114.03,-79.69 -30.37,-34.91 -53.04,-77.46 -68.07,-127.09 -15.06,-49.94 -22.41,-106.39 -22.41,-169.64 0,-60.99 7.92,-117.16 23.54,-168.19 15.87,-51.35 39.7,-95.63 71.48,-132.76 31.78,-37.17 71.48,-65.81 119.14,-86.54 47.65,-20.42 103.26,-30.62 166.79,-30.62 61.55,0 115.16,9.08 160.84,27.52 45.68,18.13 83.69,44.8 114.03,79.68 30.37,34.91 53.32,77.18 68.66,127.09 15.03,49.94 22.67,106.11 22.67,168.8zm-142.96 8.79c0,-40.57 -3.69,-78.87 -11.33,-114.91 -7.39,-36 -19.85,-67.5 -37.17,-94.74 -17.03,-27.21 -40.58,-48.78 -70.07,-64.37 -29.21,-15.88 -66.1,-23.83 -110.06,-23.83 -40.58,0 -75.46,7.07 -104.67,21.54 -29.21,14.47 -53.04,34.91 -72.04,61.27 -19.01,26.4 -32.91,57.62 -41.99,93.62 -9.36,36.04 -13.9,75.46 -13.9,118.01 0,41.14 3.69,79.72 11.33,115.72 7.39,36.04 19.88,67.54 37.45,94.47 17.6,26.67 41.14,48.25 70.35,63.84 29.5,15.87 66.38,23.83 110.34,23.83 40.02,0 74.61,-7.11 104.11,-21.58 29.52,-14.46 53.63,-34.6 72.64,-60.71 19,-26.08 32.91,-57.3 41.67,-93.3 8.8,-36.04 13.34,-75.74 13.34,-118.86zm483.93 374.16c0,4.54 -1.12,8.21 -3.41,11.34 -2.25,2.85 -5.67,5.66 -10.77,7.95 -5.1,1.97 -11.93,3.66 -20.98,4.82 -8.8,1.13 -20.16,1.69 -34.06,1.69 -13.59,0 -24.68,-0.56 -33.48,-1.69 -9.08,-1.16 -16.15,-2.85 -21.25,-4.82 -5.39,-2.29 -9.08,-5.1 -11.06,-7.95 -2,-3.13 -2.85,-6.8 -2.85,-11.34l0 -1109.98c0,-4.54 0.85,-8.52 2.85,-11.65 1.98,-3.41 5.67,-6.23 11.06,-8.51 5.1,-1.98 12.17,-3.7 21.25,-4.83 8.8,-1.12 19.89,-1.69 33.48,-1.69 13.9,0 25.26,0.57 34.06,1.69 9.05,1.13 15.88,2.85 20.98,4.83 5.1,2.28 8.52,5.1 10.77,8.51 2.29,3.13 3.41,7.11 3.41,11.65l0 1109.98zm947.14 -382.95c0,60.99 -7.92,117.16 -24.11,168.48 -15.87,51.06 -39.98,95.34 -71.76,132.47 -31.78,37.17 -71.77,66.1 -119.42,86.82 -47.94,20.7 -103.54,31.19 -166.51,31.19 -61.55,0 -115.16,-9.08 -160.84,-27.52 -45.68,-18.13 -83.69,-44.81 -114.03,-79.69 -30.37,-34.91 -53.04,-77.46 -68.07,-127.09 -15.06,-49.94 -22.42,-106.39 -22.42,-169.64 0,-60.99 7.92,-117.16 23.55,-168.19 15.87,-51.35 39.7,-95.63 71.48,-132.76 31.78,-37.17 71.48,-65.81 119.13,-86.54 47.66,-20.42 103.27,-30.62 166.79,-30.62 61.56,0 115.16,9.08 160.85,27.52 45.68,18.13 83.69,44.8 114.03,79.68 30.37,34.91 53.32,77.18 68.66,127.09 15.03,49.94 22.67,106.11 22.67,168.8zm-142.96 8.79c0,-40.57 -3.7,-78.87 -11.34,-114.91 -7.39,-36 -19.85,-67.5 -37.16,-94.74 -17.04,-27.21 -40.58,-48.78 -70.08,-64.37 -29.21,-15.88 -66.09,-23.83 -110.05,-23.83 -40.58,0 -75.46,7.07 -104.67,21.54 -29.21,14.47 -53.04,34.91 -72.05,61.27 -19,26.4 -32.9,57.62 -41.98,93.62 -9.37,36.04 -13.91,75.46 -13.91,118.01 0,41.14 3.7,79.72 11.34,115.72 7.39,36.04 19.88,67.54 37.45,94.47 17.59,26.67 41.14,48.25 70.35,63.84 29.49,15.87 66.38,23.83 110.34,23.83 40.01,0 74.61,-7.11 104.1,-21.58 29.53,-14.46 53.64,-34.6 72.64,-60.71 19.01,-26.08 32.91,-57.3 41.68,-93.3 8.8,-36.04 13.34,-75.74 13.34,-118.86zm970.71 -339.28c0,19.57 -2.57,33.48 -7.95,42.27 -5.11,8.52 -11.93,12.78 -20.42,12.78l-107.52 0c19.57,19.85 33.19,41.7 40.86,65.53 7.64,23.83 11.62,48.78 11.62,74.58 0,43.12 -6.79,81.41 -20.7,114.6 -13.9,33.19 -33.75,61.27 -59.58,84.25 -25.8,23.27 -56.45,40.86 -91.9,53.04 -35.47,12.21 -74.89,18.16 -118,18.16 -30.38,0 -59.59,-3.97 -86.8,-11.89 -27.52,-8.24 -48.81,-18.16 -63.84,-30.38 -9.36,9.93 -17,21.3 -23.26,34.07 -5.95,13.03 -9.08,27.77 -9.08,44.24 0,19.57 9.08,35.73 26.96,48.5 17.87,13.06 41.98,19.85 71.76,21.01l194.88 8.2c36.88,1.16 70.91,6.27 101.85,15.35 30.9,9.33 57.86,22.1 80.56,39.13 22.67,16.72 40.26,37.73 53.04,62.12 12.77,24.68 19,53.33 19,85.95 0,34.32 -7.1,66.94 -21.57,97.88 -14.46,30.9 -36.29,58.14 -66.09,81.69 -29.5,23.54 -67.51,42.26 -113.47,55.6 -45.94,13.59 -100.13,20.42 -162.82,20.42 -60.43,0 -111.74,-5.11 -154.01,-15.31 -42.27,-10.21 -77.18,-24.39 -104.39,-41.99 -26.96,-17.88 -46.81,-38.86 -59.02,-63.56 -12.18,-24.67 -18.16,-51.6 -18.16,-80.28 0,-18.41 2.28,-36.01 6.54,-53.32 4.54,-17 11.34,-33.47 20.42,-49.07 9.08,-15.31 20.41,-30.37 34.03,-44.24 13.62,-14.18 29.21,-28.08 47.09,-41.98 -26.96,-13.91 -46.81,-31.5 -59.83,-52.48 -12.78,-21.01 -19.32,-43.71 -19.32,-68.1 0,-33.75 6.83,-64.09 20.45,-90.77 13.62,-26.36 30.34,-50.19 50.47,-71.48 -17,-20.41 -30.62,-43.4 -40.55,-69.23 -9.92,-25.8 -15.03,-57.01 -15.03,-93.58 0,-42.55 7.08,-80.85 21.54,-114.6 14.47,-33.78 34.32,-62.43 59.87,-85.7 25.52,-23.23 56.17,-41.11 91.89,-53.6 35.76,-12.46 74.9,-18.72 116.89,-18.72 22.98,0 43.96,1.41 63.81,3.97 19.57,2.85 38.01,6.52 55.32,11.34l226.09 0c9.65,0 16.44,4.54 21.26,13.62 4.82,9.36 7.11,23.26 7.11,41.98zm-214.48 196.32c0,-50.78 -13.87,-90.52 -41.95,-118.88 -28.09,-28.65 -67.82,-42.84 -119.17,-42.84 -26.64,0 -49.91,4.54 -69.48,13.34 -19.56,8.8 -36.03,21.01 -49.09,36.32 -13.03,15.59 -22.67,33.47 -28.93,53.6 -6.51,20.14 -9.64,41.43 -9.64,63.56 0,49.07 13.9,87.64 41.98,116.01 28.09,28.08 67.23,42.27 117.73,42.27 26.96,0 50.5,-4.26 70.64,-12.78 19.85,-8.8 36.32,-20.41 49.34,-35.72 13.06,-15.31 22.7,-32.91 28.93,-52.76 6.55,-19.88 9.64,-40.58 9.64,-62.12zm68.1 591.98c0,-32.03 -13.05,-56.73 -39.45,-74.29 -26.08,-17.32 -61.83,-26.68 -106.64,-27.81l-193.18 -6.51c-17.57,13.87 -32.35,26.93 -43.68,39.42 -11.34,12.46 -20.13,24.11 -26.96,35.44 -6.51,11.37 -11.05,22.7 -13.62,33.75 -2.54,11.09 -3.66,22.42 -3.66,33.79 0,36.01 18.16,63.25 54.73,81.69 36.6,18.44 87.38,27.8 152.6,27.8 41.43,0 76.34,-3.98 104.11,-11.93 28.09,-8.23 50.5,-18.72 67.54,-32.06 17.28,-13.31 29.49,-28.37 37.13,-45.37 7.39,-17.31 11.08,-35.19 11.08,-53.92zm460.67 -74.86c0,4.54 -1.12,8.21 -3.41,11.34 -2.25,2.85 -5.67,5.66 -10.77,7.95 -5.1,1.97 -11.93,3.66 -20.98,4.82 -8.8,1.13 -20.16,1.69 -34.06,1.69 -13.59,0 -24.68,-0.56 -33.47,-1.69 -9.08,-1.16 -16.16,-2.85 -21.26,-4.82 -5.39,-2.29 -9.08,-5.1 -11.06,-7.95 -2,-3.13 -2.85,-6.8 -2.85,-11.34l0 -748.31c0,-3.98 0.85,-7.68 2.85,-10.78 1.98,-3.41 5.67,-6.26 11.06,-8.51 5.1,-2.01 12.18,-3.7 21.26,-4.82 8.79,-1.16 19.88,-1.73 33.47,-1.73 13.9,0 25.26,0.57 34.06,1.73 9.05,1.12 15.88,2.81 20.98,4.82 5.1,2.25 8.52,5.1 10.77,8.51 2.29,3.1 3.41,6.8 3.41,10.78l0 748.31zm15.31 -1000.49c0,32.31 -6.23,54.17 -18.44,65.78 -12.18,11.65 -34.6,17.6 -67.5,17.6 -32.35,0 -54.45,-5.67 -66.38,-17 -11.9,-11.37 -17.88,-32.91 -17.88,-64.69 0,-32.34 6.26,-54.16 18.44,-65.81 12.21,-11.62 34.63,-17.6 67.51,-17.6 32.34,0 54.48,5.7 66.38,17.03 11.93,11.34 17.87,32.91 17.87,64.69zm800.8 1001.34c0,6.51 -2.29,11.61 -6.55,15.03 -4.54,3.41 -10.49,5.66 -18.44,7.39 -7.64,1.69 -19,2.53 -34.03,2.53 -14.19,0 -25.8,-0.84 -34.32,-2.53 -8.52,-1.73 -14.75,-3.98 -18.72,-7.39 -3.98,-3.42 -5.95,-8.24 -5.95,-15.03l0 -74.9c-32.63,34.88 -68.95,62.12 -109.21,81.41 -40.3,19.01 -82.85,28.65 -127.65,28.65 -39.42,0 -75.18,-5.1 -106.96,-15.31 -31.75,-10.21 -58.99,-25.24 -81.41,-44.53 -22.42,-19.28 -39.98,-43.42 -52.47,-71.48 -12.5,-28.36 -18.73,-60.43 -18.73,-96.46 0,-42.27 8.52,-78.84 25.83,-109.78 17.01,-31.21 41.68,-57.01 74.02,-77.43 32.06,-20.44 71.48,-36.04 118.01,-46.24 46.53,-10.21 99,-15.31 157.15,-15.31l103.26 0 0 -58.46c0,-28.65 -3.13,-54.17 -9.08,-76.59 -6.23,-22.1 -15.88,-40.54 -29.5,-55.29 -13.62,-14.78 -31.21,-25.83 -52.75,-33.19 -21.58,-7.67 -48.22,-11.36 -79.72,-11.36 -33.75,0 -64.12,3.97 -90.77,12.21 -26.96,8.2 -50.5,17 -70.63,26.92 -20.14,9.96 -37.17,18.73 -50.79,26.96 -13.34,8.24 -23.55,12.21 -30.06,12.21 -4.54,0 -8.51,-1.16 -11.65,-3.41 -3.38,-1.97 -6.23,-5.39 -8.76,-9.93 -2.57,-4.25 -4.26,-9.92 -5.42,-16.75 -1.13,-7.07 -1.69,-14.46 -1.69,-22.98 0,-13.59 0.85,-24.67 2.85,-32.59 1.97,-7.96 6.79,-15.63 14.18,-22.7 7.36,-7.11 20.42,-15.59 38.58,-25.55 18.16,-9.65 39.42,-18.73 63.24,-26.93 23.55,-7.95 49.66,-14.75 78.03,-20.13 28.09,-5.42 56.73,-7.95 85.38,-7.95 53.61,0 99.29,5.95 136.99,18.16 37.72,12.18 68.1,30.34 91.36,53.88 23.26,23.55 39.98,52.76 50.47,87.67 10.52,34.88 15.91,75.71 15.91,122.24l0 504.94zm-136.17 -342.66l-117.16 0c-37.45,0 -70.05,3.1 -97.85,9.64 -27.52,6.23 -50.5,15.87 -68.94,28.37 -18.16,12.46 -31.5,27.21 -40.27,44.8 -8.52,17.6 -12.77,37.73 -12.77,60.43 0,38.86 12.21,69.76 36.88,92.74 24.67,22.98 58.99,34.63 103.54,34.63 35.73,0 69.2,-9.08 99.85,-27.52 30.62,-18.16 62.97,-46.25 96.72,-83.97l0 -159.12z"></path>
   </g>
  </g>
 </g>
</svg>